<svg width="33" height="34" viewBox="0 0 33 34" fill="none" xmlns="http://www.w3.org/2000/svg">
<path d="M25.7019 0.87915H7.45604C3.42529 0.87915 0.157715 4.14672 0.157715 8.17748V26.4233C0.157715 30.4541 3.42529 33.7216 7.45604 33.7216H25.7019C29.7326 33.7216 33.0002 30.4541 33.0002 26.4233V8.17748C33.0002 4.14672 29.7326 0.87915 25.7019 0.87915Z" fill="#FBD512"/>
<path d="M25.3324 22.8724C25.3324 23.2944 25.1648 23.6991 24.8664 23.9974C24.568 24.2958 24.1633 24.4634 23.7414 24.4634H9.42661C9.00464 24.4634 8.59995 24.2958 8.30158 23.9974C8.0032 23.6991 7.83557 23.2944 7.83557 22.8724V14.1235C7.83557 13.7016 8.0032 13.2969 8.30158 12.9985C8.59995 12.7001 9.00464 12.5325 9.42661 12.5325H12.6078L14.1979 10.1469H18.9701L20.5611 12.5325H23.7423C24.1643 12.5325 24.5689 12.7001 24.8673 12.9985C25.1657 13.2969 25.3333 13.7016 25.3333 14.1235L25.3324 22.8724Z" fill="#FBD512" stroke="black" stroke-width="1.5" stroke-linecap="round" stroke-linejoin="round"/>
<path d="M19.766 18.0978C19.766 18.727 19.5794 19.342 19.2299 19.8651C18.8803 20.3883 18.3835 20.796 17.8022 21.0368C17.2209 21.2776 16.5813 21.3406 15.9642 21.2178C15.3471 21.0951 14.7803 20.7921 14.3354 20.3472C13.8905 19.9023 13.5876 19.3355 13.4648 18.7184C13.3421 18.1013 13.4051 17.4617 13.6458 16.8804C13.8866 16.2991 14.2944 15.8023 14.8175 15.4527C15.3406 15.1032 15.9557 14.9166 16.5848 14.9166C17.4285 14.9166 18.2377 15.2518 18.8343 15.8484C19.4308 16.4449 19.766 17.2541 19.766 18.0978Z" fill="#FBD512" stroke="black" stroke-width="1.5" stroke-linecap="round" stroke-linejoin="round"/>
</svg>
