<svg width="24" height="24" viewBox="0 0 24 24" fill="none" xmlns="http://www.w3.org/2000/svg">
<g>
<path d="M20.2611 6.182C19.7892 5.70983 19.2289 5.33526 18.6122 5.07971C17.9956 4.82415 17.3346 4.69262 16.6671 4.69262C15.9995 4.69262 15.3385 4.82415 14.7219 5.07971C14.1052 5.33526 13.5449 5.70983 13.0731 6.182L12.0941 7.161L11.1151 6.182C10.645 5.70135 10.0843 5.31872 9.46536 5.05626C8.84643 4.7938 8.18158 4.65672 7.50931 4.65297C6.83704 4.64922 6.1707 4.77887 5.54888 5.03441C4.92705 5.28994 4.3621 5.66629 3.88673 6.14167C3.41135 6.61704 3.035 7.182 2.77946 7.80382C2.52392 8.42564 2.39428 9.09198 2.39803 9.76425C2.40178 10.4365 2.53885 11.1014 2.80131 11.7203C3.06377 12.3392 3.44641 12.9 3.92706 13.37L4.90606 14.349L12.0941 21.537L19.2821 14.349L20.2611 13.37C20.7332 12.8981 21.1078 12.3379 21.3633 11.7212C21.6189 11.1045 21.7504 10.4435 21.7504 9.776C21.7504 9.10847 21.6189 8.44748 21.3633 7.83081C21.1078 7.21413 20.7332 6.65386 20.2611 6.182V6.182Z" stroke="#303030" stroke-width="1.5" stroke-linecap="round" stroke-linejoin="round"/>
</g>
</svg>
